<?xml version="1.0" encoding="iso-8859-1"?>
<!-- Generator: Adobe Illustrator 19.0.0, SVG Export Plug-In . SVG Version: 6.00 Build 0)  -->
<svg version="1.1" id="Capa_1" xmlns="http://www.w3.org/2000/svg" xmlns:xlink="http://www.w3.org/1999/xlink" x="0px" y="0px"
	 viewBox="0 0 512 512" style="enable-background:new 0 0 512 512;" xml:space="preserve">
<g>
	<g>
		<g>
			<path d="M494.933,0H17.067C7.645,0.009,0.009,7.645,0,17.067v477.867c0.009,9.422,7.645,17.057,17.067,17.067h477.867
				c9.422-0.009,17.057-7.645,17.067-17.067V17.067C511.991,7.645,504.355,0.009,494.933,0z M17.067,17.067h477.868V51.2H17.067
				V17.067z M17.067,494.933V68.267h477.868l0.011,426.667H17.067z"/>
			<path d="M93.867,25.6h-51.2c-4.713,0-8.533,3.821-8.533,8.533s3.82,8.533,8.533,8.533h51.2c4.713,0,8.533-3.82,8.533-8.533
				S98.579,25.6,93.867,25.6z"/>
			<path d="M145.067,25.6H128c-4.713,0-8.533,3.821-8.533,8.533s3.82,8.533,8.533,8.533h17.067c4.713,0,8.533-3.82,8.533-8.533
				S149.779,25.6,145.067,25.6z"/>
			<path d="M196.267,25.6H179.2c-4.713,0-8.533,3.821-8.533,8.533s3.82,8.533,8.533,8.533h17.067c4.713,0,8.533-3.82,8.533-8.533
				S200.979,25.6,196.267,25.6z"/>
			<path d="M247.467,25.6H230.4c-4.713,0-8.533,3.821-8.533,8.533s3.82,8.533,8.533,8.533h17.067c4.713,0,8.533-3.82,8.533-8.533
				S252.18,25.6,247.467,25.6z"/>
			<path d="M298.667,25.6H281.6c-4.713,0-8.533,3.821-8.533,8.533s3.82,8.533,8.533,8.533h17.067c4.713,0,8.533-3.82,8.533-8.533
				S303.38,25.6,298.667,25.6z"/>
			<path d="M477.867,25.6h-8.533c-4.713,0-8.533,3.821-8.533,8.533s3.82,8.533,8.533,8.533h8.533c4.713,0,8.533-3.82,8.533-8.533
				S482.58,25.6,477.867,25.6z"/>
			<path d="M452.267,93.867H59.733c-9.422,0.009-17.057,7.645-17.067,17.067v358.4c0,4.713,3.82,8.533,8.533,8.533h409.6
				c4.713,0,8.533-3.82,8.533-8.533v-358.4C469.324,101.512,461.688,93.876,452.267,93.867z M110.933,460.8h-51.2V162.133h51.2
				V460.8z M452.267,460.8H128V162.133h324.267V460.8z M452.267,145.067H59.733v-34.133h392.533V145.067z"/>
			<path d="M68.946,131.242c0.187,0.544,0.447,1.062,0.771,1.538c0.341,0.425,0.683,0.85,1.025,1.279
				c1.636,1.558,3.799,2.441,6.058,2.475c1.115-0.014,2.216-0.246,3.242-0.683c1.033-0.434,1.986-1.04,2.817-1.791
				c0.341-0.429,0.683-0.854,1.021-1.279c0.324-0.476,0.583-0.993,0.771-1.538c0.245-0.485,0.418-1.003,0.512-1.538
				c0.098-0.563,0.155-1.133,0.171-1.704c-0.033-2.259-0.917-4.422-2.475-6.059c-0.83-0.754-1.782-1.362-2.817-1.796
				c-3.178-1.338-6.849-0.629-9.301,1.796c-1.559,1.635-2.443,3.799-2.475,6.059c0.013,0.572,0.071,1.141,0.171,1.704
				C68.529,130.239,68.7,130.758,68.946,131.242z"/>
			<path d="M96.341,134.059c0.425,0.341,0.85,0.683,1.363,1.021c0.436,0.338,0.926,0.599,1.45,0.771
				c0.485,0.245,1.003,0.418,1.538,0.513c0.565,0.098,1.136,0.155,1.709,0.17c1.115-0.014,2.216-0.246,3.242-0.683
				c2.143-0.777,3.831-2.465,4.608-4.608c0.438-1.026,0.67-2.127,0.684-3.242c-0.033-2.259-0.917-4.422-2.475-6.059
				c-0.83-0.754-1.782-1.362-2.817-1.796c-1.557-0.679-3.287-0.857-4.95-0.508c-0.535,0.091-1.053,0.263-1.538,0.508
				c-0.524,0.172-1.014,0.433-1.45,0.771c-0.49,0.292-0.947,0.635-1.363,1.025c-1.559,1.635-2.443,3.799-2.475,6.059
				c0.012,1.115,0.243,2.216,0.679,3.242C94.96,132.286,95.569,133.242,96.341,134.059z"/>
			<path d="M121.941,134.059c3.365,3.3,8.752,3.3,12.117,0c0.787-0.803,1.398-1.763,1.792-2.817c0.438-1.026,0.67-2.127,0.683-3.242
				c0-4.713-3.82-8.533-8.533-8.533s-8.533,3.82-8.533,8.533c0.012,1.115,0.243,2.216,0.679,3.242
				C120.54,132.296,121.151,133.256,121.941,134.059z"/>
			<path d="M435.2,136.533c2.262-0.018,4.431-0.904,6.059-2.475c2.953-2.896,3.444-7.476,1.171-10.932s-6.672-4.82-10.501-3.256
				s-6.015,5.618-5.219,9.677C427.507,133.606,431.064,136.533,435.2,136.533z"/>
			<path d="M85.333,204.8c4.713,0,8.533-3.82,8.533-8.533v-8.533c0-4.713-3.821-8.533-8.533-8.533s-8.533,3.82-8.533,8.533v8.533
				C76.8,200.979,80.62,204.8,85.333,204.8z"/>
			<path d="M85.333,247.467c4.713,0,8.533-3.82,8.533-8.533V230.4c0-4.713-3.821-8.533-8.533-8.533s-8.533,3.82-8.533,8.533v8.533
				C76.8,243.646,80.62,247.467,85.333,247.467z"/>
			<path d="M85.333,290.133c4.713,0,8.533-3.82,8.533-8.533v-8.533c0-4.713-3.821-8.533-8.533-8.533s-8.533,3.821-8.533,8.533v8.533
				C76.8,286.313,80.62,290.133,85.333,290.133z"/>
			<path d="M85.333,332.8c4.713,0,8.533-3.82,8.533-8.533v-8.533c0-4.713-3.821-8.533-8.533-8.533s-8.533,3.82-8.533,8.533v8.533
				C76.8,328.979,80.62,332.8,85.333,332.8z"/>
			<path d="M85.333,375.467c4.713,0,8.533-3.82,8.533-8.533V358.4c0-4.713-3.821-8.533-8.533-8.533s-8.533,3.82-8.533,8.533v8.533
				C76.8,371.646,80.62,375.467,85.333,375.467z"/>
			<path d="M85.333,418.133c4.713,0,8.533-3.82,8.533-8.533v-8.533c0-4.713-3.821-8.533-8.533-8.533s-8.533,3.821-8.533,8.533v8.533
				C76.8,414.313,80.62,418.133,85.333,418.133z"/>
			<path d="M153.6,196.267h25.6c4.713,0,8.533-3.82,8.533-8.533s-3.82-8.533-8.533-8.533h-25.6c-4.713,0-8.533,3.82-8.533,8.533
				S148.887,196.267,153.6,196.267z"/>
			<path d="M213.333,196.267h51.2c4.713,0,8.533-3.82,8.533-8.533s-3.821-8.533-8.533-8.533h-51.2c-4.713,0-8.533,3.82-8.533,8.533
				S208.621,196.267,213.333,196.267z"/>
			<path d="M298.667,196.267h42.667c4.713,0,8.533-3.82,8.533-8.533s-3.82-8.533-8.533-8.533h-42.667
				c-4.713,0-8.533,3.82-8.533,8.533S293.954,196.267,298.667,196.267z"/>
			<path d="M179.2,213.333c0,4.713,3.82,8.533,8.533,8.533H204.8c4.713,0,8.533-3.821,8.533-8.533c0-4.713-3.821-8.533-8.533-8.533
				h-17.067C183.021,204.8,179.2,208.621,179.2,213.333z"/>
			<path d="M298.667,221.867c4.713,0,8.533-3.821,8.533-8.533c0-4.713-3.82-8.533-8.533-8.533h-59.733
				c-4.713,0-8.533,3.821-8.533,8.533c0,4.713,3.82,8.533,8.533,8.533H298.667z"/>
			<path d="M324.267,213.333c0,4.713,3.821,8.533,8.533,8.533H384c4.713,0,8.533-3.821,8.533-8.533c0-4.713-3.82-8.533-8.533-8.533
				h-51.2C328.087,204.8,324.267,208.621,324.267,213.333z"/>
			<path d="M153.6,247.467h42.667c4.713,0,8.533-3.82,8.533-8.533s-3.82-8.533-8.533-8.533H153.6c-4.713,0-8.533,3.82-8.533,8.533
				S148.887,247.467,153.6,247.467z"/>
			<path d="M221.867,238.933c0,4.713,3.82,8.533,8.533,8.533h34.133c4.713,0,8.533-3.82,8.533-8.533s-3.821-8.533-8.533-8.533H230.4
				C225.687,230.4,221.867,234.221,221.867,238.933z"/>
			<path d="M290.133,238.933c0,4.713,3.82,8.533,8.533,8.533h119.467c4.713,0,8.533-3.82,8.533-8.533s-3.82-8.533-8.533-8.533
				H298.667C293.954,230.4,290.133,234.221,290.133,238.933z"/>
			<path d="M153.6,290.133h76.8c4.713,0,8.533-3.82,8.533-8.533s-3.82-8.533-8.533-8.533h-76.8c-4.713,0-8.533,3.821-8.533,8.533
				S148.887,290.133,153.6,290.133z"/>
			<path d="M264.533,290.133h59.733c4.713,0,8.533-3.82,8.533-8.533s-3.82-8.533-8.533-8.533h-59.733
				c-4.713,0-8.533,3.821-8.533,8.533S259.82,290.133,264.533,290.133z"/>
			<path d="M384,290.133c4.713,0,8.533-3.82,8.533-8.533s-3.82-8.533-8.533-8.533h-25.6c-4.713,0-8.533,3.821-8.533,8.533
				s3.82,8.533,8.533,8.533H384z"/>
			<path d="M179.2,298.667c-4.713,0-8.533,3.82-8.533,8.533s3.82,8.533,8.533,8.533h17.067c4.713,0,8.533-3.82,8.533-8.533
				s-3.82-8.533-8.533-8.533H179.2z"/>
			<path d="M221.867,307.2c0,4.713,3.82,8.533,8.533,8.533h34.133c4.713,0,8.533-3.82,8.533-8.533s-3.821-8.533-8.533-8.533H230.4
				C225.687,298.667,221.867,302.487,221.867,307.2z"/>
			<path d="M418.133,298.667H298.667c-4.713,0-8.533,3.82-8.533,8.533s3.82,8.533,8.533,8.533h119.467
				c4.713,0,8.533-3.82,8.533-8.533S422.846,298.667,418.133,298.667z"/>
			<path d="M153.6,341.333h76.8c4.713,0,8.533-3.821,8.533-8.533c0-4.713-3.82-8.533-8.533-8.533h-76.8
				c-4.713,0-8.533,3.821-8.533,8.533C145.067,337.513,148.887,341.333,153.6,341.333z"/>
			<path d="M264.533,341.333h59.733c4.713,0,8.533-3.821,8.533-8.533c0-4.713-3.82-8.533-8.533-8.533h-59.733
				c-4.713,0-8.533,3.821-8.533,8.533C256,337.513,259.82,341.333,264.533,341.333z"/>
			<path d="M384,341.333c4.713,0,8.533-3.821,8.533-8.533c0-4.713-3.82-8.533-8.533-8.533h-25.6c-4.713,0-8.533,3.821-8.533,8.533
				c0,4.713,3.82,8.533,8.533,8.533H384z"/>
			<path d="M153.6,384h42.667c4.713,0,8.533-3.82,8.533-8.533s-3.82-8.533-8.533-8.533H153.6c-4.713,0-8.533,3.82-8.533,8.533
				S148.887,384,153.6,384z"/>
			<path d="M221.867,375.467c0,4.713,3.82,8.533,8.533,8.533h34.133c4.713,0,8.533-3.82,8.533-8.533s-3.821-8.533-8.533-8.533H230.4
				C225.687,366.933,221.867,370.754,221.867,375.467z"/>
			<path d="M418.133,366.933H298.667c-4.713,0-8.533,3.82-8.533,8.533s3.82,8.533,8.533,8.533h119.467
				c4.713,0,8.533-3.82,8.533-8.533S422.846,366.933,418.133,366.933z"/>
			<path d="M153.6,435.2h42.667c4.713,0,8.533-3.82,8.533-8.533s-3.82-8.533-8.533-8.533H153.6c-4.713,0-8.533,3.82-8.533,8.533
				S148.887,435.2,153.6,435.2z"/>
			<path d="M264.533,418.133H230.4c-4.713,0-8.533,3.82-8.533,8.533s3.82,8.533,8.533,8.533h34.133c4.713,0,8.533-3.82,8.533-8.533
				S269.246,418.133,264.533,418.133z"/>
			<path d="M418.133,418.133H298.667c-4.713,0-8.533,3.82-8.533,8.533s3.82,8.533,8.533,8.533h119.467
				c4.713,0,8.533-3.82,8.533-8.533S422.846,418.133,418.133,418.133z"/>
			<path d="M187.733,401.067c0,4.713,3.82,8.533,8.533,8.533H230.4c4.713,0,8.533-3.82,8.533-8.533s-3.82-8.533-8.533-8.533h-34.133
				C191.554,392.533,187.733,396.354,187.733,401.067z"/>
			<path d="M256,401.067c0,4.713,3.82,8.533,8.533,8.533h59.733c4.713,0,8.533-3.82,8.533-8.533s-3.82-8.533-8.533-8.533h-59.733
				C259.82,392.533,256,396.354,256,401.067z"/>
			<path d="M384,409.6c4.713,0,8.533-3.82,8.533-8.533s-3.82-8.533-8.533-8.533h-25.6c-4.713,0-8.533,3.821-8.533,8.533
				s3.82,8.533,8.533,8.533H384z"/>
		</g>
	</g>
</g>
<g>
</g>
<g>
</g>
<g>
</g>
<g>
</g>
<g>
</g>
<g>
</g>
<g>
</g>
<g>
</g>
<g>
</g>
<g>
</g>
<g>
</g>
<g>
</g>
<g>
</g>
<g>
</g>
<g>
</g>
</svg>
