<svg x="0px" y="0px" viewBox="0 0 1000 1000">
  <path class="st0" d="M12,842.3c0-227.1,0-454.3,0-681.4c0.6-2.5,1.6-4.9,2-7.4c6.3-34.7,26.8-56.2,60.3-66c3.3-1,6.9-2,10.2-2.9
    c73.8,0,147.4,0,221.3,0c1.4,0.6,2.9,1.6,4.3,2c37.6,7.6,61.5,32.7,66.6,70.9c1.4,9.6,1.2,19.2,1.6,29.4c5.1,0,9.4,0,13.5,0
    c170.9,0,341.7,0,512.6,0c38.6,0,70.5,24.5,79.9,61.1c0.8,3.1,2,6.1,2.7,9.2c0,196.4,0,393,0,589.4c-0.8,2.3-1.8,4.7-2.3,7.2
    c-8.2,36.2-40.1,62.5-77.3,63.1c-13.3,0.2-26.8,0-40.1,0c-257.1,0-514.2,0-771.3,0c-39.7,0-71.1-23.9-80.7-61.1
    C14.1,851.1,13.2,846.6,12,842.3z M946.8,349c-298.6,0-595.8,0-894.1,0c0,4.1,0,7.6,0,11.2c0,156.6,0.4,313.3-0.4,469.7
    c-0.2,27.2,17.8,47.4,47.2,47.4c266.9-0.4,533.8-0.2,800.7-0.2c30.2,0,46.4-16.3,46.4-46.6c0-156.8,0-313.9,0-470.7
    C946.8,356.3,946.8,352.9,946.8,349z M946.8,307.7c0-12.5,0-24.5,0-36.4c0-4.3,0-8.6-0.8-12.7c-2.9-16.1-17.2-29.4-33.5-31.5
    c-5.9-0.8-11.7-0.8-17.6-0.8c-178.8,0-357.5,0-536.3,0c-3.9,0-7.8-0.4-11.7,0c-7,0.6-9.8-1.8-9.6-9.4c0.6-16.1,0.2-31.9,0.2-48
    c-0.2-27.4-16.4-43.9-43.7-44.1c-66-0.2-131.8-0.2-197.8,0c-26.6,0-43.3,16.8-43.5,43.3c0,43.5,0,86.7,0,130.2
    c0,3.1,0.2,6.3,0.4,9.2C351.5,307.7,648.6,307.7,946.8,307.7z">
  </path>
</svg>
